<?xml version="1.0" encoding="UTF-8" standalone="no"?><svg xmlns:svg="http://www.w3.org/2000/svg" xmlns="http://www.w3.org/2000/svg" version="1.1" style="overflow:visible" viewBox="-250 -250 500 500" height="2000px" width="2000px"><rect fill-opacity="0" fill="rgb(0,0,0)" height="500" width="500" y="-250" x="-250" /><svg version="1.1" y="-250" x="-250" viewBox="-250 -250 500 500" height="500px" width="500px" style="overflow:visible"><g transform="rotate(0,0,0)" stroke-linejoin="round" fill="#fff"><path stroke-linecap="butt" stroke-linejoin="round" stroke="none" fill="rgb(0,0,0)" d="m0-167a35.5172 35.5172 0 0 0-29.9222 16.4566a35.5172 35.5172 0 0 0-33.9866-3.74519a35.5172 35.5172 0 0 0-21.3469 26.6559a35.5172 35.5172 0 0 0-32.8301 9.54688a35.5172 35.5172 0 0 0-9.52143 32.793a35.5172 35.5172 0 0 0-26.6813 21.3839a35.5172 35.5172 0 0 0 3.75213 33.9427a35.5172 35.5172 0 0 0-16.4636 29.9662a35.5172 35.5172 0 0 0 16.4566 29.9222a35.5172 35.5172 0 0 0-3.74519 33.9866a35.5172 35.5172 0 0 0 26.6559 21.3469a35.5172 35.5172 0 0 0 9.54688 32.8301a35.5172 35.5172 0 0 0 32.793 9.52143a35.5172 35.5172 0 0 0 21.3839 26.6813a35.5172 35.5172 0 0 0 33.9427-3.75213a35.5172 35.5172 0 0 0 29.9662 16.4636a35.5172 35.5172 0 0 0 29.9223-16.456601a35.5172 35.5172 0 0 0 33.9866 3.74519a35.5172 35.5172 0 0 0 21.3469-26.6559a35.5172 35.5172 0 0 0 32.8301-9.54688a35.5172 35.5172 0 0 0 9.52144-32.793a35.5172 35.5172 0 0 0 26.6813-21.3839a35.5172 35.5172 0 0 0-3.75214-33.9427a35.5172 35.5172 0 0 0 16.4636-29.9662a35.5172 35.5172 0 0 0-16.456601-29.9223a35.5172 35.5172 0 0 0 3.74519-33.9866a35.5172 35.5172 0 0 0-26.6559-21.3469a35.5172 35.5172 0 0 0-9.54689-32.8301a35.5172 35.5172 0 0 0-32.793-9.52143a35.5172 35.5172 0 0 0-21.384-26.6813a35.5172 35.5172 0 0 0-33.9427 3.75213a35.5172 35.5172 0 0 0-29.9662-16.4636z" /><path stroke-linecap="butt" stroke-linejoin="round" stroke="none" fill="rgb(255,255,255)" d="m-59.045-70.833a11.7881 11.7881 0 0 0-11.7885 11.7885a11.7881 11.7881 0 0 0 11.7885 11.7884a11.7881 11.7881 0 0 0 11.7884-11.7884a11.7881 11.7881 0 0 0-11.7884-11.7885zm59.0441 0a11.7881 11.7881 0 0 0-11.7884 11.7885a11.7881 11.7881 0 0 0 11.7884 11.7884a11.7881 11.7881 0 0 0 11.7884-11.7884a11.7881 11.7881 0 0 0-11.7884-11.7885zm59.0441 0a11.7881 11.7881 0 0 0-11.7884 11.7885a11.7881 11.7881 0 0 0 11.7884 11.7884a11.7881 11.7881 0 0 0 11.7884-11.7884a11.7881 11.7881 0 0 0-11.7884-11.7885zm-118.088 59.0441a11.7881 11.7881 0 0 0-11.7885 11.7884a11.7881 11.7881 0 0 0 11.7885 11.7884a11.7881 11.7881 0 0 0 11.7884-11.7884a11.7881 11.7881 0 0 0-11.7884-11.7884zm59.0441 0a11.7881 11.7881 0 0 0-11.7884 11.7884a11.7881 11.7881 0 0 0 11.7884 11.7884a11.7881 11.7881 0 0 0 11.7884-11.7884a11.7881 11.7881 0 0 0-11.7884-11.7884zm59.0441 0a11.7881 11.7881 0 0 0-11.7884 11.7884a11.7881 11.7881 0 0 0 11.7884 11.7884a11.7881 11.7881 0 0 0 11.7884-11.7884a11.7881 11.7881 0 0 0-11.7884-11.7884zm-118.088 59.0441a11.7881 11.7881 0 0 0-11.7885 11.7884a11.7881 11.7881 0 0 0 11.7885 11.7885a11.7881 11.7881 0 0 0 11.7884-11.7885a11.7881 11.7881 0 0 0-11.7884-11.7884zm59.0441 0a11.7881 11.7881 0 0 0-11.7884 11.7884a11.7881 11.7881 0 0 0 11.7884 11.7885a11.7881 11.7881 0 0 0 11.7884-11.7885a11.7881 11.7881 0 0 0-11.7884-11.7884zm59.0441 0a11.7881 11.7881 0 0 0-11.7884 11.7884a11.7881 11.7881 0 0 0 11.7884 11.7885a11.7881 11.7881 0 0 0 11.7884-11.7885a11.7881 11.7881 0 0 0-11.7884-11.7884z" /><path stroke-linecap="butt" stroke-linejoin="round" stroke-width="0" stroke-opacity="0" stroke="rgb(0,0,0)" fill="none" d="m0-167a35.5172 35.5172 0 0 0-29.9222 16.4566a35.5172 35.5172 0 0 0-33.9866-3.74519a35.5172 35.5172 0 0 0-21.3469 26.6559a35.5172 35.5172 0 0 0-32.8301 9.54688a35.5172 35.5172 0 0 0-9.52143 32.793a35.5172 35.5172 0 0 0-26.6813 21.3839a35.5172 35.5172 0 0 0 3.75213 33.9427a35.5172 35.5172 0 0 0-16.4636 29.9662a35.5172 35.5172 0 0 0 16.4566 29.9222a35.5172 35.5172 0 0 0-3.74519 33.9866a35.5172 35.5172 0 0 0 26.6559 21.3469a35.5172 35.5172 0 0 0 9.54688 32.8301a35.5172 35.5172 0 0 0 32.793 9.52143a35.5172 35.5172 0 0 0 21.3839 26.6813a35.5172 35.5172 0 0 0 33.9427-3.75213a35.5172 35.5172 0 0 0 29.9662 16.4636a35.5172 35.5172 0 0 0 29.9223-16.456601a35.5172 35.5172 0 0 0 33.9866 3.74519a35.5172 35.5172 0 0 0 21.3469-26.6559a35.5172 35.5172 0 0 0 32.8301-9.54688a35.5172 35.5172 0 0 0 9.52144-32.793a35.5172 35.5172 0 0 0 26.6813-21.3839a35.5172 35.5172 0 0 0-3.75214-33.9427a35.5172 35.5172 0 0 0 16.4636-29.9662a35.5172 35.5172 0 0 0-16.456601-29.9223a35.5172 35.5172 0 0 0 3.74519-33.9866a35.5172 35.5172 0 0 0-26.6559-21.3469a35.5172 35.5172 0 0 0-9.54689-32.8301a35.5172 35.5172 0 0 0-32.793-9.52143a35.5172 35.5172 0 0 0-21.384-26.6813a35.5172 35.5172 0 0 0-33.9427 3.75213a35.5172 35.5172 0 0 0-29.9662-16.4636z" /></g></svg></svg>