<!--?xml version="1.0" encoding="utf-8"?-->
<!-- Generator: Adobe Illustrator 15.1.0, SVG Export Plug-In . SVG Version: 6.00 Build 0)  -->

<svg version="1.1" id="_x32_" xmlns="http://www.w3.org/2000/svg" xmlns:xlink="http://www.w3.org/1999/xlink" x="0px" y="0px" width="512px" height="512px" viewBox="0 0 512 512" style="width: 256px; height: 256px; opacity: 1;" xml:space="preserve">
<style type="text/css">

	.st0{fill:#4B4B4B;}

</style>
<g>
	<path class="st0" d="M81.113,385.625c0,28.516,23.125,51.625,51.641,51.625h246.484c28.531,0,51.641-23.109,51.641-51.625V213.188
		H81.113V385.625z" style="fill: rgb(75, 75, 75);"></path>
	<path class="st0" d="M51.738,211.672l-0.031-0.016l-33.156-22.75c-5.406-3.719-12.766-2.344-16.469,3.063
		c-3.703,5.375-2.328,12.75,3.063,16.469l33.063,22.656l-0.047-0.016c2.078,1.453,3.297,3.828,3.297,6.344v34.031
		c0,6.547,5.313,11.828,11.844,11.828c6.547,0,11.844-5.281,11.844-11.828v-34.031C65.144,227.172,60.144,217.563,51.738,211.672z" style="fill: rgb(75, 75, 75);"></path>
	<path class="st0" d="M509.926,191.969c-3.703-5.406-11.078-6.781-16.469-3.063l-33.156,22.75l-0.031,0.016
		c-8.406,5.891-13.406,15.484-13.406,25.75v34.031c0,6.547,5.297,11.828,11.844,11.828c6.531,0,11.828-5.281,11.828-11.828v-34.031
		c0-2.516,1.219-4.859,3.266-6.328l33.063-22.672C512.254,204.719,513.613,197.344,509.926,191.969z" style="fill: rgb(75, 75, 75);"></path>
	<path class="st0" d="M423.222,172.313c0,0,0.078-0.063-3.797-2.219c-42.297-23.5-91.813-37.063-144.781-37.063h-37.281
		c-52.969,0-102.484,13.563-144.781,37.063c-3.875,2.156-3.797,2.219-3.797,2.219c-4.75,2.781-7.672,7.875-7.672,13.375v8.688
		h349.766v-8.688C430.879,180.188,427.973,175.094,423.222,172.313z" style="fill: rgb(75, 75, 75);"></path>
	<path class="st0" d="M256.003,125.75c14.078,0,25.5-11.406,25.5-25.5s-11.422-25.5-25.5-25.5c-14.094,0-25.516,11.406-25.516,25.5
		S241.91,125.75,256.003,125.75z" style="fill: rgb(75, 75, 75);"></path>
</g>
</svg>
