<!--?xml version="1.0" encoding="utf-8"?-->
<!-- Generator: Adobe Illustrator 20.0.0, SVG Export Plug-In . SVG Version: 6.00 Build 0)  -->
<svg version="1.1" id="_x31_0" xmlns="http://www.w3.org/2000/svg" xmlns:xlink="http://www.w3.org/1999/xlink" x="0px" y="0px" viewBox="0 0 512 512" style="width: 256px; height: 256px; opacity: 1;" xml:space="preserve">
<style type="text/css">
	.st0{fill:#374149;}
</style>
<g>
	<path class="st0" d="M511.718,141.178c-5.457-73.305-141.11-99.332-255.711-99.332c-114.687,0-250.453,26.027-255.714,99.215
		c-0.746,6.594-0.43,18.019,5.418,34.98l5.418,168.004c0.238,37.375,28.977,70.906,81,94.461
		c44.992,20.418,103.179,31.649,163.878,31.649c60.696,0,118.883-11.23,163.836-31.649c52.024-23.554,80.805-57.086,81.039-94.305
		l5.418-168.16C512.07,159.158,512.464,147.81,511.718,141.178z M482.136,156.13c-0.829,3.813-2.141,8.59-4.379,14.375l-0.078,2.828
		c-8.441,11.778-29.449,23.672-59.679,33.371c-44.129,14.137-101.688,21.95-161.993,21.95c-60.308,0-117.866-7.813-161.996-21.95
		c-30.27-9.699-51.238-21.633-59.714-33.41l-0.082-2.79c-2.238-5.89-3.609-10.758-4.394-14.606
		c30.782,32.313,121.906,56.496,226.187,56.496c75.7,0,144.356-12.801,188.137-32.156c1.348-0.594,2.77-1.164,4.07-1.77
		c1.016-0.476,1.922-0.976,2.91-1.457C464.182,170.662,474.796,163.666,482.136,156.13z M194.69,161.818
		c19.754-6.137,32.34-16.93,32.34-29.75c0-9.004-6.274-16.976-16.805-23.094c-2.43-1.446-5.035-2.836-7.953-4.113
		c15.777-3.274,34.226-5.184,53.734-5.184c56.184,0,103.688,15.859,103.688,34.59c0,18.766-47.504,34.629-103.688,34.629
		c-17.82,0-34.702-1.644-49.542-4.422C202.44,163.678,198.472,162.826,194.69,161.818z M154.71,108.08
		c5.063,0,9.895,0.274,14.45,0.746c1.492,0.117,2.902,0.312,4.278,0.469c0.238,0.038,0.472,0.038,0.706,0.078
		c2.473,0.356,4.832,0.75,7.106,1.219c21.086,4.281,34.356,13.23,34.356,21.476c0,9.266-16.688,19.394-42.364,22.774
		c-2.394,0.313-4.867,0.586-7.382,0.786c-2.942,0.195-5.965,0.351-9.066,0.39h-4.008c-8.988-0.118-17.668-1.058-25.714-2.786
		c-25.09-5.339-47.898-7.972-69.887-7.972h-9.578c-7.266,0-13.192-5.926-13.192-13.192c0-1.766,0.313-3.418,0.981-4.945
		c-0.039-0.039,0-0.039,0.039-0.082c1.687-2.274,3.77-4.512,6.086-6.672c1.805-0.98,3.887-1.492,6.086-1.492h9.578
		c21.989,0,44.797-2.633,69.887-8.012C135.667,109.022,145.01,108.08,154.71,108.08z M256.006,200.974
		c-96.82,0-175.304-20.418-208.601-44.328h9.777c21.164,0,43.27,2.55,67.492,7.734c9.422,2.043,19.512,3.062,30.035,3.062
		c5.102,0,10.051-0.234,14.762-0.707c1.726-0.117,3.378-0.312,5.027-0.55c4.277-0.547,8.359-1.293,12.25-2.199
		c18.61,5.539,42.676,8.836,69.258,8.836c60.344,0,107.614-16.922,107.614-38.555c0-21.594-47.27-38.515-107.614-38.515
		c-22.812,0-43.781,2.434-61.015,6.594c-1.57-0.508-3.141-0.981-4.789-1.41c-10.367-2.71-22.379-4.281-35.493-4.281
		c-10.523,0-20.613,1.058-30.035,3.062c-17.683,3.801-34.191,6.16-50.034,7.148c-4.383,0.234-8.734,0.406-13.02,0.406
		c-0.285,0-0.57,0-0.855,0c39.48-20.664,111.843-36.726,195.242-36.726c116.41,0,211.383,27.68,225.438,65.098
		C474.734,167.209,380.542,200.974,256.006,200.974z M34.842,190.095c12.133,10.172,30.898,19.516,55.672,27.446
		c45.274,14.527,104.008,22.496,165.492,22.496c61.481,0,120.219-7.969,165.489-22.496c19.378-6.203,35.004-13.281,46.718-20.934
		c3.226-2.062,6.23-4.156,8.91-6.305l-1.016,31.008c-23.086,22.418-112.839,53.082-220.102,53.082
		c-107.226,0-196.98-30.664-220.144-53.043l-1.02-31.172V190.095z M472.139,343.611c0,0.734-0.054,1.484-0.117,2.238
		c-0.004,0.012-0.008,0.027-0.008,0.039l0.363-8.914L472.139,343.611z M471.917,347.646c-4.812,51.114-101.801,93.805-215.91,93.805
		c-114.254,0-211.23-42.754-215.941-93.954c25.207,25.637,97.606,61.172,215.941,61.172c105.871,0,174.848-28.442,206.266-52.797
		C466.089,352.986,469.335,350.209,471.917,347.646z M52.554,260.779c0.551,0.117,1.106,0.282,1.645,0.539
		c30.347,14.488,70.515,25.797,114.84,32.312c6.125,0.864,8.206,8.559,3.418,12.446c-0.039,0.039-0.078,0.078-0.117,0.118
		c-17.122,13.98-32.668,28.937-46.41,44.602c-0.332,0.378-0.715,0.706-1.114,1.003c-0.082,0.063-0.164,0.13-0.25,0.184
		c-0.543,0.371-1.133,0.641-1.75,0.844c-0.519,0.16-1.094,0.258-1.699,0.316c-0.371,0.019-0.738,0.054-1.113,0.008
		c-30.348-3.414-61.562-22.926-72.555-32.625c-1.453-1.297-2.238-3.141-2.316-5.066l-1.102-47.626
		c-0.102-4.602,4.062-7.832,8.274-7.113C52.39,260.736,52.472,260.763,52.554,260.779z" style="fill: rgb(75, 75, 75);"></path>
	<path class="st0" d="M144.948,145.694c1.059,0.078,2.118,0.195,3.176,0.273c1.77,0.118,3.535,0.234,5.383,0.274
		c0.824,0.043,1.726,0.043,2.59,0.043c0.98,0,1.965,0,2.906-0.043c19.984-0.546,35.726-6.672,35.726-14.172
		c0-6.793-12.879-12.484-30.114-13.859c-1.882-0.156-3.809-0.274-5.812-0.313h-0.508c-0.746-0.042-1.454-0.042-2.199-0.042h-1.492
		c-20.653,0.277-37.141,6.519-37.141,14.214C117.464,138.466,129.046,143.924,144.948,145.694z" style="fill: rgb(75, 75, 75);"></path>
</g>
</svg>
