<!--?xml version="1.0" encoding="utf-8"?-->
<!-- Generator: Adobe Illustrator 18.1.1, SVG Export Plug-In . SVG Version: 6.00 Build 0)  -->

<svg version="1.1" id="_x32_" xmlns="http://www.w3.org/2000/svg" xmlns:xlink="http://www.w3.org/1999/xlink" x="0px" y="0px" viewBox="0 0 512 512" style="width: 256px; height: 256px; opacity: 1;" xml:space="preserve">
<style type="text/css">
	.st0{fill:#4B4B4B;}
</style>
<g>
	<path class="st0" d="M469.361,293.581c-3.02-8.806-7.804-15.885-12.838-22.082c-7.562-9.261-15.895-16.823-22.695-23.781
		c-3.381-3.465-6.4-6.716-8.732-9.689c-2.332-2.945-3.939-5.592-4.868-7.692c-1.571-3.586-3.577-8.491-6.039-14.12
		c-8.602-19.805-22.202-48.938-46.912-73.834c-12.356-12.392-27.637-23.744-46.188-31.873c-8.538-3.744-17.762-6.735-27.628-8.928
		c9.614-10.237,17.251-25.62,8.129-46.597C290.757,30.08,274.769,0,255.995,0s-34.762,30.08-45.594,54.986
		c-9.113,20.976-1.476,36.36,8.138,46.597c-12.931,2.88-24.756,7.153-35.384,12.588c-15.133,7.72-27.813,17.585-38.432,28.212
		c-15.895,16.016-27.162,33.758-35.486,49.644c-4.19,7.97-7.608,15.458-10.507,22.017c-2.852,6.595-5.184,12.271-6.958,16.294
		c-1.365,3.214-4.505,7.646-9.057,12.597c-3.372,3.698-7.44,7.72-11.789,11.984c-6.474,6.484-13.554,13.441-19.666,22.137
		c-3.019,4.339-5.844,9.169-7.97,14.688c-2.091,5.462-3.466,11.704-3.466,18.263c0,4.663,0.688,9.456,2.09,14.12
		c1.376,4.718,3.382,9.262,5.955,13.683c2.899,4.914,6.401,9.3,10.423,12.959c5.992,5.509,13.08,9.216,20,11.343
		c7.006,2.136,13.842,2.815,20.317,2.815c4.97,0,9.745-0.409,14.353-1.004c0.242,1.022,0.492,2.072,0.743,3.14
		c10.376,43.3,28.278,118.295,29.606,123.572C146.257,502.431,153.614,512,169.834,512h172.332c16.22,0,23.577-9.569,26.513-21.366
		c1.329-5.276,19.239-80.272,29.578-123.572c0.251-1.068,0.501-2.118,0.752-3.14c4.598,0.594,9.373,1.004,14.38,1.004
		c8.612,0,17.984-1.207,27.237-5.462c4.589-2.137,9.057-5.035,13.08-8.696c4.022-3.66,7.524-8.045,10.386-12.959h0.037
		c2.573-4.421,4.589-8.964,5.955-13.683c1.365-4.664,2.09-9.458,2.09-14.12C472.175,304.171,471.088,298.616,469.361,293.581z
		 M188.042,479.82l-16.982-93.881h18.774l16.982,93.881H188.042z M265.387,479.82h-18.774v-88.214
		c3.056,0.195,6.168,0.325,9.41,0.325c3.214,0,6.327-0.121,9.364-0.306V479.82z M323.958,479.82h-18.774l16.982-93.881h18.774
		L323.958,479.82z M431.495,312.867c-0.362,1.16-0.965,2.657-2.09,4.542h0.037c-1.041,1.737-2.016,2.815-2.898,3.66
		c-1.328,1.17-2.61,1.932-4.663,2.573c-2.053,0.65-4.914,1.049-8.491,1.049c-6.716,0.046-15.737-1.532-25.267-3.464
		c-4.794-0.92-9.7-1.97-14.809-2.768c-5.072-0.808-10.302-1.45-15.857-1.45c-5.314,0-10.98,0.558-17.018,2.731
		c-8.091,2.982-14.882,6.838-21.079,10.544c-1.811,1.087-3.622,2.174-5.359,3.224c-7.238,4.384-14.037,8.407-21.729,11.501
		c-9.569,3.827-20.558,6.642-36.249,6.688c-10.506-0.046-18.876-1.337-26.16-3.261c-10.823-2.945-19.266-7.441-28.166-12.718
		c-1.198-0.725-2.406-1.448-3.66-2.21c-3.252-1.932-6.595-3.986-10.182-6.039c-4.904-2.778-10.255-5.518-16.331-7.729
		c-6.038-2.174-11.714-2.731-16.981-2.731c-5.555,0-10.786,0.641-15.858,1.45c-7.637,1.244-14.966,2.898-21.84,4.143
		c-6.846,1.245-13.2,2.09-18.236,2.09c-4.784,0-8.166-0.715-10.293-1.728c-1.134-0.53-1.978-1.087-2.861-1.895
		c-0.883-0.846-1.849-1.924-2.898-3.66c-1.088-1.886-1.69-3.382-2.053-4.542c-0.316-1.208-0.446-2.062-0.446-2.861
		c0.047-1.041,0.168-2.007,0.651-3.382c0.761-2.332,2.694-5.75,5.991-9.735c4.868-6.038,12.393-13.08,20.206-21.004
		c3.901-3.986,7.887-8.24,11.62-12.996c3.744-4.794,7.284-10.098,10.024-16.257c1.932-4.348,3.902-9.169,6.196-14.446
		c7.924-18.468,19.713-42.612,38.506-61.395c9.373-9.42,20.4-17.548,33.805-23.429c13.396-5.834,29.29-9.53,48.965-9.568
		c22.454,0.037,39.992,4.83,54.522,12.224c10.906,5.556,20.158,12.68,28.203,20.772c12.031,12.068,21.282,26.345,28.408,39.945
		c3.539,6.764,6.558,13.359,9.215,19.434c2.657,6.076,4.905,11.594,7.08,16.462c4.189,9.419,10.144,16.823,16.061,23.382
		c4.46,4.905,9.012,9.336,13.238,13.516c6.308,6.196,11.789,11.909,15.05,16.618c1.644,2.332,2.732,4.339,3.334,5.955
		c0.604,1.616,0.762,2.778,0.808,3.902C431.895,310.804,431.821,311.659,431.495,312.867z" style="fill: rgb(75, 75, 75);"></path>
</g>
</svg>
