<!--?xml version="1.0" encoding="utf-8"?-->
<!-- Generator: Adobe Illustrator 18.1.1, SVG Export Plug-In . SVG Version: 6.00 Build 0)  -->

<svg version="1.1" id="_x32_" xmlns="http://www.w3.org/2000/svg" xmlns:xlink="http://www.w3.org/1999/xlink" x="0px" y="0px" viewBox="0 0 512 512" style="width: 256px; height: 256px; opacity: 1;" xml:space="preserve">
<style type="text/css">
	.st0{fill:#4B4B4B;}
</style>
<g>
	<path class="st0" d="M397.86,273.313c-14.19-45.498-35.237-87.684-52.739-118.682c-17.512-30.981-31.514-50.714-31.702-50.997
		l-3.998-5.637H202.578l-3.997,5.637c-0.258,0.377-25.062,35.339-50.002,85.436c-12.467,25.052-24.984,53.906-34.44,84.243
		c-9.446,30.355-15.89,62.194-15.897,93.399c0,3.586,0.085,7.156,0.265,10.724c1.544,30.99,6.761,55.047,14.62,73.889
		c5.886,14.122,13.308,25.293,21.629,33.88c6.238,6.461,12.955,11.437,19.742,15.195c20.385,11.299,40.77,11.565,52.465,11.6h98.065
		c6.932-0.009,16.927-0.128,28.141-2.548c8.408-1.819,17.571-4.959,26.589-10.339c6.76-4.041,13.418-9.334,19.544-16.104
		c9.198-10.158,17.15-23.594,23.062-40.899c5.903-17.314,9.824-38.522,11.137-64.682c0.171-3.56,0.257-7.129,0.257-10.716
		C413.75,335.507,407.307,303.668,397.86,273.313z M386.775,376.106c-1.416,28.699-6.229,49.719-12.586,64.914
		c-4.762,11.42-10.356,19.57-16.173,25.593c-4.375,4.513-8.897,7.85-13.496,10.408c-13.736,7.661-28.596,8.271-39.492,8.228h-98.065
		c-6.452,0.009-14.286-0.171-22.479-1.948c-6.152-1.322-12.432-3.527-18.541-7.164c-4.573-2.737-9.077-6.281-13.418-11.077
		c-6.478-7.172-12.647-17.185-17.58-31.598c-4.916-14.388-8.519-33.152-9.729-57.356c-0.155-3.106-0.223-6.237-0.223-9.394
		c-0.026-27.48,5.774-56.901,14.688-85.436c13.324-42.821,33.58-83.592,50.491-113.474c8.443-14.964,16.044-27.198,21.518-35.666
		c1.905-2.943,3.526-5.397,4.865-7.387h78.898c7.876,11.771,26.666,41.019,45.138,78.504c11.815,23.946,23.483,51.246,32.148,79.362
		c8.665,28.124,14.285,57.038,14.268,84.098C387.007,369.87,386.938,373.001,386.775,376.106z" style="fill: rgb(75, 75, 75);"></path>
	<path class="st0" d="M312.75,20.574C312.441,9.128,303.063,0,291.609,0h-71.211c-11.462,0-20.84,9.128-21.15,20.574l-1.638,60.409
		h116.778L312.75,20.574z" style="fill: rgb(75, 75, 75);"></path>
	<path class="st0" d="M192.111,225.19c-21.491,45.309-41.113,100.897-38.702,149.501c4.109,82.322,33.864,82.322,53.554,82.322
		h98.065c19.69,0,49.462,0,53.554-82.322c2.42-48.518-17.236-104.14-38.746-149.501H192.111z" style="fill: rgb(75, 75, 75);"></path>
</g>
</svg>
